<svg xmlns="http://www.w3.org/2000/svg" viewBox="0 0 24 24" width="24" height="24" fill="#D32F2F">
  <path d="M8.851,18.56 C8.851,18.56 7.881,19.11 9.141,19.24 C10.661,19.41 11.461,19.39 13.291,19.02 C13.291,19.02 13.891,19.39 14.761,19.82 C11.191,21.3 6.861,19.68 8.851,18.56 L8.851,18.56 Z M8.331,15.9 C8.331,15.9 7.261,16.65 8.521,16.76 C10.161,16.9 11.461,16.9 13.811,16.43 C13.811,16.43 14.221,16.85 14.911,17.17 C10.591,18.35 5.971,17.13 8.331,15.9 L8.331,15.9 Z M12.131,11.94 C13.091,13.01 11.881,13.95 11.881,13.95 C11.881,13.95 14.521,12.67 13.361,11.06 C12.271,9.53 11.451,8.78 15.001,5.4 C15.001,5.4 9.761,7.68 12.131,11.94 L12.131,11.94 Z M16.651,20.44 C16.651,20.44 17.421,21.09 16.051,21.61 C13.531,22.53 6.201,22.7 3.991,21.64 C3.151,21.24 4.701,20.63 5.121,20.5 C5.561,20.36 5.781,20.38 5.781,20.38 C4.841,19.73 0.731,21.31 3.181,21.87 C9.671,23.34 17.661,21.8 16.651,20.44 L16.651,20.44 Z M9.201,13.38 C9.201,13.38 5.571,14.35 7.911,14.61 C9.081,14.74 11.431,14.69 13.631,14.53 C15.421,14.39 17.211,14.08 17.211,14.08 C17.211,14.08 16.501,14.36 16.001,14.67 C11.751,15.86 4.211,15.43 6.021,14.36 C7.501,13.49 9.201,13.38 9.201,13.38 L9.201,13.38 Z M15.321,17.4 C19.661,15.24 17.791,13.15 16.551,13.5 C16.221,13.58 16.081,13.65 16.081,13.65 C16.081,13.65 16.191,13.45 16.431,13.35 C19.001,12.35 20.891,15.55 15.251,17.48 C15.251,17.48 15.301,17.44 15.321,17.4 L15.321,17.4 Z M10.001,0 C10.001,0 12.001,2 8.001,5.08 C4.761,7.6 7.301,9.07 8.001,11.06 C6.641,9.79 5.601,8.68 6.501,7.54 C7.931,5.65 11.401,4.3 10.001,0 L10.001,0 Z M10.501,23.58 C14.701,23.84 20.501,23.34 20.601,21.33 C20.601,20.43 19.921,19.76 19.001,19.76 C18.101,19.76 17.651,20.16 17.651,20.76 C17.651,21.29 18.091,21.5 18.501,21.5 C18.781,21.5 19.001,21.37 19.001,21.37 C19.001,21.37 18.711,21.99 17.651,21.99 C16.501,21.99 15.751,21.2 15.751,20.3 C15.751,18.56 18.251,17.71 20.101,18.56 C21.751,19.32 21.401,23.01 17.651,23.82 C14.701,24.45 10.501,24.15 8.001,23.58 C8.001,23.58 8.501,23.42 10.501,23.58 L10.501,23.58 Z"/>
</svg>