<svg xmlns="http://www.w3.org/2000/svg" viewBox="0 0 24 24" width="24" height="24" fill="#007BFF">
  <path d="M11.751,0 C5.741,0 6.108,2.702 6.108,2.702 L6.121,5.5 L11.893,5.5 L11.893,6.5 L3.792,6.5 C3.792,6.5 0,6.06 0,12.067 C0,18.075 3.312,17.79 3.312,17.79 L5.292,17.79 L5.292,14.852 C5.292,14.852 5.198,11.539 8.592,11.539 C11.986,11.539 13.872,11.539 13.872,11.539 C13.872,11.539 17.001,11.593 17.001,8.5 C17.001,5.407 17.001,3.276 17.001,3.276 C17.001,3.276 17.542,0 11.751,0 zM8.5,1.875 C9.328,1.875 10,2.547 10,3.375 C10,4.203 9.328,4.875 8.5,4.875 C7.672,4.875 7,4.203 7,3.375 C7,2.547 7.672,1.875 8.5,1.875 z" transform="translate(0, 3)"/>
  <path d="M12.249,24 C18.259,24 17.892,21.298 17.892,21.298 L17.879,18.5 L12.107,18.5 L12.107,17.5 L20.208,17.5 C20.208,17.5 24,17.94 24,11.933 C24,5.925 20.688,6.21 20.688,6.21 L18.708,6.21 L18.708,9.148 C18.708,9.148 18.802,12.461 15.408,12.461 C12.014,12.461 10.128,12.461 10.128,12.461 C10.128,12.461 6.999,12.407 6.999,15.5 C6.999,18.593 6.999,20.724 6.999,20.724 C6.999,20.724 6.458,24 12.249,24 zM15.5,22.125 C14.672,22.125 14,21.453 14,20.625 C14,19.797 14.672,19.125 15.5,19.125 C16.328,19.125 17,19.797 17,20.625 C17,21.453 16.328,22.125 15.5,22.125 z" transform="translate(0, -3)"/>
</svg>