<svg width="100" height="100" viewBox="0 0 100 100" xmlns="http://www.w3.org/2000/svg">
  <!-- Círculo exterior que representa el camino del aprendizaje -->
  <circle cx="50" cy="50" r="45" fill="none" stroke="#4ade80" stroke-width="2" opacity="0.6" />
  
  <!-- Círculo interior que representa el crecimiento -->
  <circle cx="50" cy="50" r="35" fill="none" stroke="#4ade80" stroke-width="1.5" opacity="0.8" />
  
  <!-- Patrón de constelación que representa la sabiduría -->
  <g fill="#4ade80">
    <!-- Estrellas principales -->
    <circle cx="50" cy="30" r="3" />
    <circle cx="65" cy="50" r="3" />
    <circle cx="50" cy="70" r="3" />
    <circle cx="35" cy="50" r="3" />
    
    <!-- Estrellas secundarias -->
    <circle cx="57" cy="37" r="1.5" />
    <circle cx="63" cy="63" r="1.5" />
    <circle cx="37" cy="63" r="1.5" />
    <circle cx="43" cy="37" r="1.5" />
    
    <!-- Estrellas pequeñas -->
    <circle cx="50" cy="50" r="2" />
    <circle cx="60" cy="30" r="1" />
    <circle cx="70" cy="40" r="1" />
    <circle cx="70" cy="60" r="1" />
    <circle cx="60" cy="70" r="1" />
    <circle cx="40" cy="70" r="1" />
    <circle cx="30" cy="60" r="1" />
    <circle cx="30" cy="40" r="1" />
    <circle cx="40" cy="30" r="1" />
  </g>
  
  <!-- Líneas de conexión que representan el flujo de la Fuerza -->
  <g stroke="#4ade80" stroke-width="1" opacity="0.5">
    <line x1="50" y1="30" x2="57" y2="37" />
    <line x1="57" y1="37" x2="65" y2="50" />
    <line x1="65" y1="50" x2="63" y2="63" />
    <line x1="63" y1="63" x2="50" y2="70" />
    <line x1="50" y1="70" x2="37" y2="63" />
    <line x1="37" y1="63" x2="35" y2="50" />
    <line x1="35" y1="50" x2="43" y2="37" />
    <line x1="43" y1="37" x2="50" y2="30" />
    
    <!-- Conexiones al centro -->
    <line x1="50" y1="30" x2="50" y2="50" stroke-dasharray="2,2" />
    <line x1="65" y1="50" x2="50" y2="50" stroke-dasharray="2,2" />
    <line x1="50" y1="70" x2="50" y2="50" stroke-dasharray="2,2" />
    <line x1="35" y1="50" x2="50" y2="50" stroke-dasharray="2,2" />
  </g>
  
  <!-- Aura central que representa el potencial -->
  <circle cx="50" cy="50" r="10" fill="#4ade80" opacity="0.2" />
</svg>